<svg width="28" height="30" viewBox="0 0 28 30" fill="none" xmlns="http://www.w3.org/2000/svg">
<path d="M27.1843 16.2014C27.1843 14.157 25.5372 12.491 23.5004 12.458C23.8627 11.8817 24.0733 11.2006 24.0733 10.4711C24.0733 8.40775 22.3961 6.7289 20.3334 6.72615C20.4492 6.18713 20.4444 5.63141 20.316 5.0631C19.7369 2.50191 16.7706 0.632629 16.6447 0.554123L15.7532 0L15.3634 0.974579C15.0378 1.78894 14.0508 1.9574 12.4644 2.13799C11.3299 2.26707 10.1568 2.40051 9.261 3.02353C7.83598 4.01482 7.58101 5.65544 7.58604 6.72821C5.5609 6.77444 3.92737 8.43498 3.92737 10.4711C3.92737 11.2008 4.13794 11.8817 4.50026 12.458C2.46344 12.491 0.816406 14.157 0.816406 16.2014C0.816406 17.6294 1.61978 18.8727 2.79829 19.5044L5.80397 30H22.1967L25.2024 19.5042C26.3807 18.8727 27.1843 17.6294 27.1843 16.2014ZM10.2658 4.468C10.797 4.09859 11.7457 3.99055 12.6633 3.88618C13.9448 3.74039 15.477 3.56598 16.417 2.55455C17.2437 3.21556 18.3442 4.31305 18.6005 5.45448C18.6996 5.89668 18.666 6.31599 18.4964 6.72615H9.34477C9.33905 6.03653 9.47913 5.01526 10.2658 4.468ZM7.67233 8.48557H20.3284C21.4231 8.48557 22.3139 9.37637 22.3139 10.4711C22.3139 11.5659 21.4231 12.4567 20.3284 12.4567H7.67233C6.57759 12.4567 5.68678 11.5659 5.68678 10.4711C5.68678 9.37637 6.57759 8.48557 7.67233 8.48557ZM4.56137 14.2161H23.4393C24.5341 14.2161 25.4249 15.1067 25.4249 16.2014C25.4249 17.2961 24.5341 18.187 23.4393 18.187H4.56137C3.46663 18.187 2.57582 17.2961 2.57582 16.2014C2.57582 15.1067 3.46663 14.2161 4.56137 14.2161ZM14.8801 19.9464H18.1885L17.0016 28.2406H14.8801V19.9464ZM13.1206 28.2406H10.9991L9.81238 19.9464H13.1206V28.2406ZM4.75523 19.9464H8.03488L9.22163 28.2406H7.13034L4.75523 19.9464ZM20.8703 28.2406H18.7791L19.9658 19.9464H23.2457L20.8703 28.2406Z" fill="#E95D2A"/>
</svg>
