<svg width="30" height="30" viewBox="0 0 30 30" fill="none" xmlns="http://www.w3.org/2000/svg">
<g clip-path="url(#clip0)">
<path d="M20.6308 7.1282C18.7376 7.81726 19.2648 11.1429 19.9567 13.044C20.6761 15.0205 22.3837 17.7726 24.2381 17.0976C24.7024 16.9285 25.4895 16.3877 25.5437 14.6647C25.5753 13.6621 25.351 12.446 24.9121 11.2404C24.0344 8.82876 22.3201 6.51337 20.6308 7.1282ZM23.6293 15.4252C23.2816 15.3108 22.3141 14.3814 21.6085 12.4428C20.9006 10.498 21.0437 9.142 21.239 8.80702C21.5951 8.94554 22.5546 9.90284 23.2603 11.8416C23.966 13.7802 23.8222 15.114 23.6293 15.4252Z" fill="#E95D2A"/>
<path d="M29.0625 14.47C29.0625 13.0924 28.7696 11.5598 28.2155 10.0379C26.8739 6.35227 24.6033 4.00729 22.0312 3.58482V0H15V4.39453C15 5.85041 14.215 7.05961 13.3839 8.33977C12.4501 9.77824 11.4844 11.2658 11.4844 13.2422V19.4837C9.60908 19.866 8.16398 21.4456 7.98703 23.3868C6.91693 24.012 6.21094 25.207 6.21094 26.4844C6.21094 28.4229 7.78805 30 9.72656 30H29.0625V14.47ZM16.7578 1.75781H20.2734V3.51562H16.7578V1.75781ZM20.2734 28.2422H9.72656C8.7573 28.2422 7.96875 27.4536 7.96875 26.4844C7.96875 25.7211 8.45555 25.0184 9.15258 24.7755L9.77039 24.5603C9.73793 23.9179 9.74912 23.9156 9.72674 23.7574C9.74373 22.3181 10.9199 21.1523 12.3633 21.1523C13.3039 21.1523 14.1803 21.672 14.6504 22.5085L14.9421 23.0276C15.8185 22.9109 15.8039 22.9102 15.8789 22.9102C16.9032 22.9102 17.8424 23.5173 18.2718 24.457L18.6551 25.296C19.3127 24.9903 19.6694 24.668 20.2734 24.668C21.2263 24.668 22.0312 25.4998 22.0312 26.4844C22.0312 27.4536 21.2427 28.2422 20.2734 28.2422ZM27.3047 28.2422H23.3161C23.6163 27.7246 23.7891 27.1245 23.7891 26.4844C23.7891 24.5569 22.2314 22.9102 20.2734 22.9102C19.9985 22.9102 19.7261 22.9438 19.4582 23.0105C18.6436 21.8613 17.3117 21.1523 15.8789 21.1523C15.8725 21.1523 15.8661 21.1523 15.8597 21.1524C15.2135 20.293 14.2795 19.7011 13.2422 19.4852V13.2422C13.2422 11.7863 14.0272 10.5771 14.8583 9.29695C15.6485 8.07973 16.4615 6.82746 16.6929 5.27344H21.1875C23.8045 5.27344 25.6641 8.16779 26.5637 10.6392C27.0485 11.9706 27.3047 13.2952 27.3047 14.47V28.2422Z" fill="#E95D2A"/>
<path d="M0.9375 22.0312C0.9375 23.4851 2.12033 24.668 3.57422 24.668C5.02811 24.668 6.21094 23.4851 6.21094 22.0312C6.21094 20.5774 5.02811 19.3945 3.57422 19.3945C2.12033 19.3945 0.9375 20.5774 0.9375 22.0312ZM3.57422 21.1523C4.05885 21.1523 4.45312 21.5466 4.45312 22.0312C4.45312 22.5159 4.05885 22.9102 3.57422 22.9102C3.08959 22.9102 2.69531 22.5159 2.69531 22.0312C2.69531 21.5466 3.08959 21.1523 3.57422 21.1523Z" fill="#E95D2A"/>
<path d="M6.21094 17.6367C8.14945 17.6367 9.72656 16.0596 9.72656 14.1211C9.72656 12.1826 8.14945 10.6055 6.21094 10.6055C4.27242 10.6055 2.69531 12.1826 2.69531 14.1211C2.69531 16.0596 4.27242 17.6367 6.21094 17.6367ZM6.21094 12.3633C7.1802 12.3633 7.96875 13.1518 7.96875 14.1211C7.96875 15.0904 7.1802 15.8789 6.21094 15.8789C5.24168 15.8789 4.45312 15.0904 4.45312 14.1211C4.45312 13.1518 5.24168 12.3633 6.21094 12.3633Z" fill="#E95D2A"/>
</g>
<defs>
<clipPath id="clip0">
<rect width="30" height="30" fill="white"/>
</clipPath>
</defs>
</svg>
