<svg width="30" height="30" viewBox="0 0 30 30" fill="none" xmlns="http://www.w3.org/2000/svg">
<path d="M15.9375 9.64547L14.1797 4.2549V0H1.75781V4.2549L0 9.64547V30H15.9375V9.64547ZM3.51562 1.75781H12.4219V3.51562H3.51562V1.75781ZM3.27457 5.27344H12.663L13.8476 8.90625H2.08992L3.27457 5.27344ZM14.1797 28.2422H1.75781V26.4844H14.1797V28.2422ZM14.1797 26.4844H7.96875H1.75781V10.6641H14.1797V26.4844Z" fill="#403C3B"/>
<path d="M7.96875 22.9688C10.3979 22.9688 12.4219 21.0039 12.4219 18.5742C12.4219 16.4162 10.8343 14.6636 8.84766 14.2666V12.4219H7.08984V14.2666C5.10445 14.6633 3.51562 16.4149 3.51562 18.5742C3.51562 21.0033 5.5391 22.9688 7.96875 22.9688ZM7.96875 15.9375C9.42979 15.9375 10.6641 17.1449 10.6641 18.5742C10.6641 20.0035 9.42979 21.2109 7.96875 21.2109C6.50771 21.2109 5.27344 20.0035 5.27344 18.5742C5.27344 17.1449 6.50771 15.9375 7.96875 15.9375Z" fill="#403C3B"/>
<path d="M23.8644 15.9192C23.3672 15.1099 22.8193 14.5452 22.7113 14.4371L21.4672 15.6789C21.7898 16.0041 22.5096 16.878 22.8206 17.7816C19.9154 18.2718 17.6953 20.8051 17.6953 23.8477C17.6953 27.2401 20.4553 30 23.8477 30C27.2401 30 30 27.2401 30 23.8477C30 21.8655 29.0576 20.0996 27.5975 18.9737C29.0219 18.246 30 16.7648 30 15.0586V14.1797H27.3633C25.937 14.1797 24.6678 14.8631 23.8644 15.9192ZM28.2422 23.8477C28.2422 26.2708 26.2708 28.2422 23.8477 28.2422C21.4245 28.2422 19.4531 26.2708 19.4531 23.8477C19.4531 21.4245 21.4245 19.4531 23.8477 19.4531C26.2708 19.4531 28.2422 21.4245 28.2422 23.8477ZM25.6055 17.6953H24.8771C25.2398 16.6722 26.2174 15.9369 27.3633 15.9369H28.0916C27.7288 16.96 26.7514 17.6953 25.6055 17.6953Z" fill="#403C3B"/>
</svg>
