<svg width="20" height="30" viewBox="0 0 20 30" fill="none" xmlns="http://www.w3.org/2000/svg">
<path d="M19.375 6.5625C19.375 3.97875 17.2731 1.875 14.6875 1.875C14.3781 1.875 14.0856 1.90125 13.8044 1.95562C12.9288 0.733125 11.5281 0 10 0C8.47188 0 7.07125 0.733125 6.19563 1.95562C5.91438 1.90125 5.62187 1.875 5.3125 1.875C2.72688 1.875 0.625 3.97875 0.625 6.5625C0.625 8.01188 1.3 9.2925 2.33688 10.1531C2.19438 12.2456 2.21687 15.7856 3.50312 19.0912C5.18875 23.4056 3.61 26.6269 3.5425 26.7581C3.475 26.8913 3.4375 27.0375 3.4375 27.1875C3.4375 28.7381 4.69938 30 6.25 30H13.75C15.3006 30 16.5625 28.7381 16.5625 27.1875C16.5625 27.0413 16.525 26.895 16.4613 26.7638C16.4538 26.7488 15.7356 25.2919 15.7356 23.0625C15.7356 21.7294 15.9925 20.3925 16.4969 19.0894C17.7831 15.7856 17.8056 12.2456 17.6631 10.1531C18.7 9.2925 19.375 8.01188 19.375 6.5625ZM14.7513 18.4106C14.1606 19.9312 13.8606 21.4969 13.8606 23.0625C13.8606 25.2094 14.4212 26.7656 14.6725 27.3563C14.5919 27.7931 14.2094 28.125 13.75 28.125H6.25C5.7925 28.125 5.41 27.7931 5.32937 27.3581C5.74562 26.3888 6.98875 22.86 5.24875 18.4106C4.24188 15.8231 4.10125 13.0406 4.16687 11.0925C4.53625 11.1844 4.915 11.25 5.3125 11.25H6.25V14.0625C6.25 15.6131 7.51188 16.875 9.0625 16.875C10.6131 16.875 11.875 15.6131 11.875 14.0625V11.25H14.6875C15.085 11.25 15.4637 11.1844 15.8331 11.0925C15.8988 13.0387 15.7581 15.8231 14.7513 18.4106ZM14.6875 9.375H10.9375C10.42 9.375 10 9.795 10 10.3125V14.0625C10 14.58 9.57812 15 9.0625 15C8.54688 15 8.125 14.58 8.125 14.0625V10.3125C8.125 9.795 7.705 9.375 7.1875 9.375H5.3125C3.76187 9.375 2.5 8.11312 2.5 6.5625C2.5 5.01188 3.76187 3.75 5.3125 3.75C5.67063 3.75 5.98375 3.80625 6.27063 3.92437C6.72813 4.11 7.24938 3.91312 7.46688 3.47062C7.95063 2.48625 8.92188 1.875 10 1.875C11.0781 1.875 12.0494 2.48625 12.535 3.47062C12.7506 3.91312 13.2719 4.10812 13.7312 3.92437C14.0162 3.80625 14.3294 3.75 14.6875 3.75C16.2381 3.75 17.5 5.01188 17.5 6.5625C17.5 8.11312 16.2381 9.375 14.6875 9.375Z" fill="#403C3B"/>
</svg>
