<svg width="25" height="25" viewBox="0 0 25 25" fill="none" xmlns="http://www.w3.org/2000/svg">
<path d="M24.7137 23.3323L17.6604 16.279C20.8739 12.3691 20.6553 6.56495 17.0036 2.91329C13.1189 -0.971423 6.79801 -0.971423 2.91329 2.91329C-0.971423 6.79801 -0.971423 13.1189 2.91329 17.0036C6.56398 20.6543 12.3674 20.8753 16.279 17.6604L23.3323 24.7137C23.7138 25.0951 24.3322 25.0951 24.7136 24.7137C25.0951 24.3322 25.0951 23.7138 24.7137 23.3323ZM15.6223 15.6222C12.4992 18.7453 7.41769 18.7452 4.29464 15.6222C1.17159 12.4992 1.17159 7.41764 4.29464 4.29459C7.41759 1.17169 12.4991 1.17145 15.6223 4.29459C18.7453 7.41764 18.7453 12.4992 15.6223 15.6222Z" fill="white"/>
</svg>
