<svg width="30" height="30" viewBox="0 0 30 30" fill="none" xmlns="http://www.w3.org/2000/svg">
<path d="M30 10.5C30 9.5 28 9 27.5 10.5L7.441 8.08008L6.11133 3.53795C5.96514 3.0385 5.50711 2.69531 4.98668 2.69531H1.17188C0.524648 2.69531 0 3.21996 0 3.86719C0 4.51441 0.524648 5.03906 1.17188 5.03906H4.10865C4.2798 5.62377 8.60848 20.4109 8.78332 21.0082C8.92951 21.5076 9.3876 21.8508 9.90797 21.8508H24.7971C25.3175 21.8508 25.7755 21.5077 25.9217 21.0082C25.9217 21.0082 30 11.5 30 10.5ZM23.9191 19.5071H10.786L7.441 8.08008L27.5 10.5L23.9191 19.5071Z" fill="white"/>
<path d="M14.1967 27.3047C15.0704 27.3047 15.7787 26.5964 15.7787 25.7227C15.7787 24.8489 15.0704 24.1406 14.1967 24.1406C13.3229 24.1406 12.6146 24.8489 12.6146 25.7227C12.6146 26.5964 13.3229 27.3047 14.1967 27.3047Z" fill="white"/>
<path d="M20.5086 27.3047C21.3823 27.3047 22.0906 26.5964 22.0906 25.7227C22.0906 24.8489 21.3823 24.1406 20.5086 24.1406C19.6349 24.1406 18.9266 24.8489 18.9266 25.7227C18.9266 26.5964 19.6349 27.3047 20.5086 27.3047Z" fill="white"/>
</svg>
