<svg width="30" height="30" viewBox="0 0 30 30" fill="none" xmlns="http://www.w3.org/2000/svg">
<path d="M28.4909 14.6042C27.3724 13.6828 25.6668 13.3593 23.4683 13.58C23.5326 12.9865 23.5712 12.3886 23.5712 11.7865C23.5712 11.1951 23.0912 10.7152 22.4998 10.7152H1.07261C0.481214 10.7152 0.00124359 11.1951 0.00124359 11.7865C0.00124359 14.0664 0.472643 16.2841 1.3983 18.3733L3.07177 22.1423C3.87957 23.955 4.28669 25.8771 4.28669 27.8569V28.9283C4.28669 29.5197 4.76666 29.9997 5.35805 29.9997H18.2144C18.8058 29.9997 19.2858 29.5197 19.2858 28.9283V27.8569C19.2858 26.7513 19.4272 25.6671 19.68 24.6043C20.6121 24.1929 21.8549 23.9958 23.0827 23.8158C26.001 23.3894 29.9994 22.8044 29.9994 18.2147C29.9994 16.6441 29.4937 15.4292 28.4909 14.6042ZM18.5422 21.2702C17.6144 23.3594 17.143 25.5771 17.143 27.8569H6.42941C6.42941 25.5771 5.95801 23.3594 5.03236 21.2702L3.35675 17.5012C2.69893 16.0184 2.30467 14.4607 2.18468 12.8579H21.3899C21.2678 14.4607 20.8757 16.0184 20.2157 17.5012L18.5422 21.2702ZM22.772 21.6966C22.0199 21.8059 21.2571 21.9216 20.5242 22.0887L22.1741 18.3754C22.547 17.5333 22.8255 16.6677 23.0505 15.7891C24.9383 15.5042 26.3889 15.652 27.1281 16.2584C27.6188 16.6612 27.8566 17.3019 27.8566 18.2147C27.8566 20.6917 26.3053 21.1781 22.772 21.6966Z" fill="#403C3B"/>
<path d="M19.1486 3.76278C18.4373 2.49643 18.8829 1.92861 18.9536 1.84933C19.3693 1.45292 19.4015 0.795109 19.0158 0.362279C18.6194 -0.0834078 17.9401 -0.121977 17.503 0.272284C17.428 0.340851 15.671 1.95004 17.2802 4.81271C18.0066 6.10263 17.5287 6.66831 17.503 6.70045C17.0616 7.09471 17.0188 7.77181 17.413 8.21322C17.6252 8.45106 17.9187 8.57319 18.2144 8.57319C18.4673 8.57319 18.7222 8.4832 18.9258 8.30321C19.0008 8.23679 20.7578 6.62546 19.1486 3.76278Z" fill="#403C3B"/>
<path d="M11.6491 3.76278C10.9377 2.49643 11.3834 1.92861 11.4541 1.84933C11.8698 1.45292 11.9019 0.795109 11.5162 0.362279C11.122 -0.0834078 10.4427 -0.121977 10.0035 0.272284C9.92849 0.340851 8.17145 1.95004 9.78064 4.81271C10.507 6.10263 10.0292 6.66831 10.0035 6.70045C9.56208 7.09471 9.51923 7.77181 9.91349 8.21322C10.1256 8.45106 10.4192 8.57319 10.7149 8.57319C10.9677 8.57319 11.2227 8.4832 11.4262 8.30321C11.5012 8.23679 13.2583 6.62546 11.6491 3.76278Z" fill="#403C3B"/>
<path d="M4.14957 3.76278C3.43819 2.49643 3.88387 1.92861 3.95458 1.84933C4.37027 1.45292 4.40241 0.795109 4.01672 0.362279C3.62246 -0.0834078 2.94107 -0.121977 2.50396 0.272284C2.42896 0.340851 0.671927 1.95004 2.28111 4.81271C3.0075 6.10263 2.52967 6.66831 2.50396 6.70045C2.06256 7.09471 2.0197 7.77181 2.41396 8.21322C2.62609 8.45106 2.91965 8.57319 3.21534 8.57319C3.46818 8.57319 3.72317 8.4832 3.92673 8.30321C4.00172 8.23679 5.75876 6.62546 4.14957 3.76278Z" fill="#403C3B"/>
</svg>
