<svg width="25" height="25" viewBox="0 0 25 25" fill="none" xmlns="http://www.w3.org/2000/svg">
<path d="M12.5003 0C8.54409 0 5.32544 3.2186 5.32544 7.17485C5.32544 11.1311 8.54409 14.3497 12.5003 14.3497C16.4565 14.3497 19.6751 11.1311 19.6751 7.17485C19.6751 3.2186 16.4565 0 12.5003 0ZM12.5003 12.3966C9.621 12.3966 7.27856 10.0541 7.27856 7.17485C7.27856 4.29556 9.621 1.95312 12.5003 1.95312C15.3796 1.95312 17.722 4.29561 17.722 7.17485C17.722 10.0541 15.3796 12.3966 12.5003 12.3966Z" fill="white"/>
<path d="M12.8595 15.3005H12.1406C7.33091 15.3005 3.41797 19.2134 3.41797 24.0231C3.41797 24.2821 3.52085 24.5305 3.70396 24.7136C3.88711 24.8968 4.1355 24.9997 4.39453 24.9997H20.6055C21.1448 24.9997 21.582 24.5624 21.582 24.0231C21.582 19.2134 17.6691 15.3005 12.8595 15.3005ZM5.44131 23.0465C5.91597 19.7748 8.73931 17.2536 12.1405 17.2536H12.8594C16.2606 17.2536 19.084 19.7748 19.5586 23.0465H5.44131Z" fill="white"/>
</svg>
