<svg width="30" height="30" viewBox="0 0 30 30" fill="none" xmlns="http://www.w3.org/2000/svg">
<path d="M26.7285 16.7752L25.9059 10.6641H17.3375L16.5149 16.7752C15.9532 19.6669 17.8982 22.411 20.7428 22.8946V28.2422H17.2272V30H26.0162V28.2422H22.5006V22.8946C25.3474 22.4105 27.2897 19.6644 26.7285 16.7752ZM24.3687 12.4219L24.6054 14.1797H18.638L18.8746 12.4219H24.3687ZM18.2443 17.0913L18.2498 17.0638L18.4013 15.9375H24.8421L24.9899 17.0361L24.9991 17.0913C25.4257 19.2247 23.7931 21.2109 21.6217 21.2109C19.4459 21.2109 17.8186 19.2204 18.2443 17.0913Z" fill="#403C3B"/>
<path d="M6.67969 0V7.66319L4.96605 9.37683C3.80402 10.5389 3.16406 12.084 3.16406 13.7272V30H15.4688V13.7272C15.4688 12.084 14.8288 10.5389 13.6668 9.37683L11.9531 7.66319V0L6.67969 0ZM8.4375 1.75781H10.1953V7.14844H8.4375V1.75781ZM4.92188 22.9688H10.1953V24.7266H4.92188V22.9688ZM10.1953 22.9688H4.92188V15.9375H10.1953V22.9688ZM13.7109 13.7272V28.2422H4.92188V26.4844H11.9531V14.1797H4.92188V13.7272C4.92188 12.5535 5.37895 11.4498 6.20911 10.6199L7.92274 8.90625H10.7101L12.4237 10.6199C13.2539 11.4498 13.7109 12.5535 13.7109 13.7272Z" fill="#403C3B"/>
</svg>
