<svg width="30" height="30" viewBox="0 0 30 30" fill="none" xmlns="http://www.w3.org/2000/svg">
<g clip-path="url(#clip0)">
<path d="M26.5402 8.90534H12.9235L11.1371 5.27298H12.362V0H1.81606V5.27298H3.04104L0.0584717 11.3374V28.2395H11.8944C12.8805 29.4681 14.3439 30.2195 15.9141 29.9426C16.1954 29.8931 16.4737 29.8043 16.7561 29.6736C17.0383 29.8043 17.3167 29.8931 17.598 29.9426C19.1491 30.2163 20.6162 29.4878 21.6176 28.2395H28.298V15.4656C29.3698 14.8457 30.0556 13.6897 30.0556 12.4207C30.0556 10.4823 28.4786 8.90534 26.5402 8.90534ZM3.57365 1.75758H10.6042V3.51517H3.57365V1.75758ZM4.99981 5.27298H9.17829L12.362 11.7462V12.7563L11.6818 13.0964C10.514 13.6803 9.11397 13.5931 8.02747 12.8689C6.11676 11.5952 3.62102 11.689 1.81606 13.0218V11.7462L4.99981 5.27298ZM1.81606 26.4816V15.4212L2.45006 14.7869C3.67527 13.5619 5.61093 13.3701 7.05243 14.3312C8.62966 15.3827 10.6532 15.5274 12.362 14.7192V20.316C10.9281 21.4648 10.3227 23.5108 10.6711 25.4872C10.7315 25.8291 10.8185 26.1619 10.9297 26.4819H1.81606V26.4816ZM17.9031 28.2118C17.4554 28.1328 17.1095 27.8465 16.7561 27.6469C16.4014 27.8474 16.0567 28.1328 15.609 28.2118C14.0496 28.4866 12.7012 26.8788 12.4021 25.1821C11.9143 22.416 13.9267 20.398 15.8772 21.5792V22.9665H17.635V21.5792C18.0257 21.3426 18.5389 21.159 19.1241 21.2622C20.5558 21.5147 21.4468 23.2732 21.1101 25.1818C20.8176 26.8408 19.4874 28.491 17.9031 28.2118ZM27.1261 14.0785L26.5402 14.2857V26.4816H22.5826C22.6938 26.1619 22.7808 25.8291 22.841 25.4872C23.3175 22.785 21.9696 19.9793 19.4295 19.5312C18.8641 19.4316 18.288 19.4673 17.7298 19.6305C18.0372 18.5154 19.0598 17.6935 20.2713 17.6935V15.9359C18.0708 15.9359 16.2432 17.5621 15.9262 19.6758C15.3355 19.4788 14.722 19.4257 14.1196 19.5257V11.3374L13.788 10.6629H26.5402C27.5095 10.6629 28.298 11.4514 28.298 12.4207C28.298 13.1646 27.8269 13.8309 27.1261 14.0785Z" fill="#403C3B"/>
<path d="M7.08923 15.9366C5.15082 15.9366 3.57382 17.5136 3.57382 19.4521C3.57382 21.3902 5.15082 22.9672 7.08923 22.9672C9.02763 22.9672 10.6044 21.3902 10.6044 19.4521C10.6044 17.5136 9.02763 15.9366 7.08923 15.9366ZM7.08923 21.2097C6.12014 21.2097 5.33164 20.4212 5.33164 19.4521C5.33164 18.4827 6.12014 17.6942 7.08923 17.6942C8.05831 17.6942 8.84681 18.4827 8.84681 19.4521C8.84681 20.4212 8.05831 21.2097 7.08923 21.2097Z" fill="#403C3B"/>
</g>
<defs>
<clipPath id="clip0">
<rect width="30" height="30" fill="white"/>
</clipPath>
</defs>
</svg>
